<?xml version="1.0" encoding="UTF-8"?><svg id="a" xmlns="http://www.w3.org/2000/svg" viewBox="0 0 400 400"><defs><style>.cls-1{fill:none;}.cls-1,.cls-2,.cls-3{stroke-width:0px;}.cls-2{fill:#000;}.cls-3{fill:#fff;}</style></defs><rect class="cls-1" width="400" height="400"/><path class="cls-2" d="M207.07,299.43c4.24,0,17.24-.03,28.08-9.27,9.61-8.71,10.59-18.97,10.87-30.51l-.07-32.51c0-10.17,0-22.63-10.63-31.42-2.4-1.99-5.1-3.58-8.01-4.72,4.84-3.22,8.43-8.01,10.15-13.56,1.24-4.52,1.76-9.21,1.55-13.9l-.09-28.94c-.26-8.01-1.14-17.14-7.62-24.53-5.72-6.29-14.32-9.56-25.22-9.56h-.21l-39.25.11c-1.19.02-2.32.49-3.17,1.32-.84.81-1.31,1.93-1.28,3.1l.33,190.02c-.01,1.55.81,2.99,2.15,3.78.75.46,1.6.71,2.48.7l39.94-.11h0ZM222.21,215.35c1.06,3.73,1.53,7.6,1.39,11.47l.07,26.93c0,12.28-.76,18.05-5.45,21.68-2.8,2.01-6.23,3.18-14.99,3.48,0,0-15.04.03-16.2.03-1.36,0-1.88-.83-1.88-2.11,0-11.08-.16-72.15-.16-72.66-.1-.64.34-1.24.98-1.33.11-.02.21-.02.32,0,5.29-.11,10.58.06,15.85.53,4.59.49,9.48,1.32,13.44,3.83,3.08,1.86,5.42,4.73,6.62,8.13l.02.02ZM185.92,120.77h10.82c14.09,0,20.16,2.08,20.16,16.49v24.38c-.18,5.86-.28,15.78-11.88,19.26-3.24.91-4.79,1.2-11.84,1.44h-6.98s-.09.02-.14.02c-1.09,0-1.39-.58-1.39-1.46,0-.56-.07-58.52-.07-58.52,0-.95.33-1.5,1.32-1.6v-.02ZM200.47,50.82c-82.39,0-149.17,66.79-149.17,149.17,0,82.39,66.79,149.17,149.17,149.17,82.39,0,149.17-66.79,149.17-149.17h0c-.1-82.35-66.83-149.08-149.17-149.17h0ZM335.52,163.57c2.6,9.63,4.16,19.51,4.64,29.47-4.12,8.16-12.21,14.88-18.1,18.19-.51-3.85-1.18-8.22-2.08-12.23-.91-4.12-1.91-8.16-2.99-12.12,4.67-2.86,8.76-6.57,12.05-10.94,2.8-3.75,4.99-7.93,6.47-12.37h0ZM200.47,60.12c51.84.03,99.42,28.72,123.64,74.56,5.89,10.94,5.23,24.23-1.71,34.54-.26.39-.53.76-.83,1.14-2.07,2.76-4.56,5.18-7.37,7.18-7.57-23.93-18.3-44.81-32.07-62.23-14.04-17.86-31.79-32.46-52.02-42.8-10.26-5.24-21.05-9.38-32.18-12.36.84,0,1.67-.03,2.52-.03h.02ZM109.58,306.2c-30.18-25.76-47.97-63.13-48.94-102.8,8.49,8.84,18.06,16.57,28.48,23.01,19.57,11.98,41.32,19.95,63.99,23.46v-9.44c-20.76-3.39-40.66-10.74-58.64-21.66-19.28-11.94-30.1-24.82-33.5-29.26,1.62-21.95,8.43-43.2,19.88-62,5.93-2.23,33.36-10.68,68.02,8.27,1.32.72,2.67,1.48,4.05,2.25v-10.66c-27.21-14.72-50.37-14.2-64.04-11.65,13.79-18.23,31.82-32.83,52.51-42.54,15.53-7.26,33.05-9.08,49.74-5.15,12.05,2.83,23.72,7.1,34.75,12.72,19.04,9.73,35.75,23.48,48.96,40.29,13.41,16.96,23.8,37.46,31.05,61.05-4.93,2-10.1,3.35-15.38,4.03-13.25,1.83-28.25-1.44-43.73-7.37-.71,3.03-1.92,5.93-3.57,8.57,13.65,5.24,27.15,8.62,39.76,8.62,2.95,0,5.89-.19,8.81-.58,5.71-.74,11.32-2.17,16.7-4.24.86,3.24,1.67,6.53,2.41,9.87,1.08,4.88,1.89,9.81,2.43,14.78-13.64,7.04-33.13,14.14-58.02,19.49v9.44c22.66-4.75,42.91-11.25,58.71-18.86.23,8.14-.35,16.29-1.72,24.31-8.38,5.29-16.27,11.31-23.57,18-22.17,19.58-43.67,36.81-82.42,49.21-19.49,6.25-39.13,6.95-53.71,6.12-15.84-.9-30.95-6.99-42.99-17.32v.04ZM302.4,282.15c-1.57,3.47-3.2,6.66-4.82,9.61-8.16,14.7-20.65,26.54-35.77,33.9-32.48,15.88-69.85,18.55-104.26,7.46,1.53.03,3.1.07,4.72.07,15.87.11,31.67-2.22,46.83-6.91,40.41-12.95,63.62-31.56,85.75-51.09,5.63-4.96,10.38-8.78,14.41-11.72-1.82,6.4-4.11,12.65-6.86,18.7v-.02ZM311.13,285.4c4.17-9.31,7.31-19.05,9.36-29.05,5.61-2.8,8.13-2.59,8.97-2.36-4.72,11.22-10.88,21.77-18.33,31.4h0ZM333.23,244.01c-1.08-.31-2.22-.39-3.33-.25-2.6.22-5.16.76-7.62,1.62.98-8.05,1.23-16.18.76-24.28,2.89-1.66,5.7-3.47,8.41-5.41,3.06-2.19,5.94-4.63,8.61-7.28-.72,12.12-3.02,24.09-6.84,35.61h.02Z"/><path class="cls-3" d="M186.08,183.01h7.08c7.13-.25,8.7-.56,11.99-1.48,11.75-3.51,11.87-13.58,12.03-19.52v-24.7c0-14.62-6.15-16.7-20.42-16.7h-10.97c-1,.11-1.34.66-1.34,1.62,0,0,.07,58.73.07,59.28,0,.89.3,1.48,1.41,1.48h.14Z"/><path class="cls-3" d="M222.5,214.78c-1.2-3.44-3.57-6.36-6.7-8.23-4.01-2.57-8.96-3.39-13.62-3.89-5.34-.46-10.7-.64-16.06-.53-.65-.08-1.24.38-1.32,1.03-.01.11-.01.22,0,.33,0,.52.16,62.38.16,73.61,0,1.3.53,2.14,1.91,2.14,1.18,0,16.41-.04,16.41-.04,8.88-.3,12.36-1.48,15.18-3.53,4.76-3.69,5.53-9.52,5.53-21.96l-.07-27.29c.14-3.92-.34-7.84-1.41-11.62l-.02-.02Z"/><path class="cls-3" d="M313.6,225.77c-15.76,7.6-35.96,14.08-58.56,18.82v-9.43c24.82-5.35,44.27-12.45,57.87-19.45-.53-4.96-1.34-9.88-2.42-14.75-.74-3.33-1.56-6.62-2.4-9.85-5.36,2.07-10.96,3.49-16.66,4.23-2.91.4-5.85.59-8.79.58-12.6,0-26.05-3.35-39.67-8.61,1.66-2.63,2.86-5.52,3.56-8.55,15.45,5.92,30.42,9.18,43.64,7.36,5.27-.67,10.42-2.02,15.34-4.03-7.23-23.56-17.61-44-30.98-60.92-13.18-16.78-29.85-30.5-48.85-40.21-11-5.62-22.64-9.88-34.67-12.69-16.65-3.91-34.13-2.1-49.62,5.15-20.66,9.68-38.64,24.25-52.4,42.45,13.64-2.53,36.74-3.07,63.87,11.62v10.64c-1.35-.77-2.7-1.53-4.03-2.25-34.58-18.91-61.92-10.48-67.86-8.25-11.42,18.76-18.22,39.97-19.83,61.87,3.39,4.42,14.16,17.28,33.42,29.2,17.92,10.9,37.78,18.24,58.48,21.61v9.43c-22.61-3.51-44.31-11.47-63.82-23.42-10.4-6.42-19.95-14.14-28.42-22.96.96,39.58,18.72,76.88,48.83,102.59,12.01,10.31,27.08,16.39,42.88,17.29,14.55.81,34.14.12,53.59-6.11,38.67-12.38,60.12-29.57,82.23-49.11,7.3-6.67,15.17-12.68,23.52-17.96,1.37-8.01,1.95-16.14,1.72-24.26v-.03ZM234.93,289.92c-10.81,9.22-23.78,9.25-28.01,9.25l-39.85.11c-.87,0-1.73-.24-2.48-.7-1.33-.79-2.15-2.23-2.14-3.77l-.33-189.64c-.02-1.16.44-2.28,1.28-3.09.84-.83,1.98-1.3,3.16-1.32l39.16-.11h.21c10.88,0,19.47,3.27,25.17,9.55,6.46,7.37,7.34,16.49,7.6,24.47l.09,28.88c.21,4.68-.31,9.36-1.55,13.87-1.72,5.54-5.3,10.32-10.13,13.54,2.89,1.14,5.59,2.72,7.99,4.71,10.6,8.78,10.6,21.19,10.6,31.36l.07,32.45c-.28,11.52-1.26,21.75-10.85,30.44h0Z"/><path class="cls-3" d="M294.21,274.22c-22.4,19.8-45.91,38.66-86.87,51.76-15.36,4.76-31.36,7.12-47.44,7-1.64,0-3.23-.02-4.78-.07,34.86,11.23,72.71,8.52,105.62-7.56,15.32-7.45,27.97-19.44,36.24-34.34,1.64-2.98,3.3-6.24,4.88-9.73,2.78-6.13,5.11-12.47,6.95-18.95-4.08,2.98-8.89,6.84-14.6,11.87v.02Z"/><path class="cls-3" d="M335.4,163.32c-3.26,9.84-9.91,18.21-18.77,23.61,1.09,4.01,2.1,8.1,3.03,12.28.91,4.06,1.59,8.48,2.1,12.39,5.97-3.35,14.17-10.16,18.34-18.43-.49-10.09-2.07-20.1-4.71-29.85h0Z"/><path class="cls-3" d="M320.2,256.02c-2.09,10.12-5.27,19.99-9.48,29.42,7.55-9.75,13.8-20.44,18.57-31.81-.86-.23-3.42-.45-9.09,2.39h0Z"/><path class="cls-3" d="M281.34,116.15c13.96,17.64,24.83,38.8,32.49,63.04,2.85-2.03,5.37-4.48,7.47-7.27.28-.37.57-.77.83-1.16,7.02-10.44,7.69-23.91,1.73-34.99-24.55-46.42-72.74-75.48-125.26-75.53-.86,0-1.69,0-2.55.04,11.28,3.01,22.21,7.2,32.6,12.51,20.5,10.47,38.48,25.26,52.7,43.36h0Z"/><path class="cls-3" d="M333.08,244.17c3.88-11.67,6.21-23.8,6.93-36.07-2.71,2.68-5.62,5.15-8.71,7.38-2.74,1.97-5.59,3.81-8.52,5.49.47,8.2.22,16.44-.77,24.59,2.49-.87,5.09-1.42,7.72-1.64,1.13-.14,2.27-.06,3.37.25h-.02Z"/></svg>