<?xml version="1.0" encoding="utf-8"?>
<!-- Generator: Adobe Illustrator 19.0.0, SVG Export Plug-In . SVG Version: 6.00 Build 0)  -->
<svg version="1.1" id="layer" xmlns="http://www.w3.org/2000/svg" xmlns:xlink="http://www.w3.org/1999/xlink" x="0px" y="0px"
	 viewBox="-153 -46 652 652" style="enable-background:new -153 -46 652 652;" xml:space="preserve">
<style type="text/css">
	.st0{fill:#0D2140;}
	.st1{fill:#F79E1F;}
	.st2{fill:#2E5236;}
</style>
<g>
	<path class="st0" d="M-131.5,334.7c1,20.1,9.8,38.1,23.6,51.3c14.6-12.7,24.2-30.9,25.2-51.3H-131.5z"/>
	<path class="st1" d="M-75.9,334.7c-1,22.1-11.2,41.9-26.9,55.8c12.5,10,28.3,16.3,45.5,17v-72.8H-75.9z"/>
	<path class="st0" d="M-131.5,328h48.8c-0.9-20.6-10.5-39-25.2-51.8C-121.8,289.4-130.7,307.7-131.5,328"/>
	<path class="st1" d="M-102.8,271.7c15.8,14,26.1,34,26.9,56.3h18.6v-73.3C-74.5,255.4-90.2,261.7-102.8,271.7"/>
	<path class="st0" d="M23.8,334.7H-25c1,20.4,10.6,38.6,25.2,51.3C14,372.8,22.9,354.8,23.8,334.7"/>
	<path class="st2" d="M-31.8,334.7h-18.6v72.8c17.2-0.7,33-7,45.5-17C-20.6,376.6-30.8,356.8-31.8,334.7"/>
	<path class="st2" d="M-4.9,271.7c-12.5-10-28.3-16.3-45.5-17V328h18.6C-30.9,305.7-20.7,285.7-4.9,271.7"/>
	<path class="st0" d="M85.5,142.9L16.4,298.4c-4-8.3-9.5-15.9-16.1-22.2C-14.5,289-24.1,307.4-25,328h48.8l49.9-112.4h145.9
		l32.2-72.6H85.5z"/>
</g>
<polygon class="st2" points="244.2,215.5 276.4,142.9 262.7,142.9 230.4,215.5 "/>
<g>
	<path class="st0" d="M109,405.4h58.1L114.6,234H83.2L6.8,405.4H30c0,0,8.6-19.3,20.1-45h45.1L109,405.4z M59.4,339.4
		c5.7-12.8,11.7-26.2,17.4-39.1l12,39.1H59.4z"/>
</g>
<polygon class="st2" points="172.4,388.1 180.5,370.1 138.4,234 124.7,234 "/>
<g>
	<path class="st0" d="M375.2,384.5L442.3,234l-97.6,0l-9.3,20.9h39.4c-20.4,45.7-67.1,150.5-67.1,150.5l151.5,0l9.3-20.9H375.2z"/>
</g>
<polygon class="st2" points="271.5,374.8 333.9,234 320.2,234 257.7,374.8 "/>
<polygon class="st2" points="404.4,374.8 466.8,234 453.1,234 390.7,374.8 "/>
<g>
	<path class="st0" d="M309.6,234H167.3l-9.3,20.9h84.1C221.7,300.6,175,405.4,175,405.4l122.7,0l9.2-20.9h-64.4L309.6,234z"/>
</g>
</svg>
